<mxfile host="app.diagrams.net" modified="2024-06-17T16:15:43.652Z" agent="Mozilla/5.0 (Windows NT 10.0; Win64; x64) AppleWebKit/537.36 (KHTML, like Gecko) Chrome/125.0.0.0 Safari/537.36" etag="UhwG09_pU8X_6FrpFnUO" version="24.5.4" type="google" pages="2">
  <diagram id="C5RBs43oDa-KdzZeNtuy" name="Page-1">
    <mxGraphModel grid="1" page="1" gridSize="10" guides="1" tooltips="1" connect="1" arrows="1" fold="1" pageScale="1" pageWidth="827" pageHeight="1169" math="0" shadow="0">
      <root>
        <mxCell id="WIyWlLk6GJQsqaUBKTNV-0" />
        <mxCell id="WIyWlLk6GJQsqaUBKTNV-1" parent="WIyWlLk6GJQsqaUBKTNV-0" />
        <mxCell id="p9t3yTNLSIE3uB8LMLM_-0" value="&lt;b&gt;HOMEWORK 1&amp;nbsp;&lt;/b&gt;" style="rounded=1;whiteSpace=wrap;html=1;absoluteArcSize=1;arcSize=14;strokeWidth=2;" vertex="1" parent="WIyWlLk6GJQsqaUBKTNV-1">
          <mxGeometry x="40" y="40" width="100" height="40" as="geometry" />
        </mxCell>
        <mxCell id="p9t3yTNLSIE3uB8LMLM_-2" value="1. Start&amp;nbsp;&lt;div&gt;2.Declare Vaniable Kilo , Height , BMI&lt;/div&gt;&lt;div&gt;3 input Vaniiable&amp;nbsp; Kilo , Height&lt;/div&gt;&lt;div&gt;4 compute&lt;span style=&quot;background-color: rgb(5, 255, 13);&quot;&gt; BMI = Kilo / (Height^2)&lt;/span&gt;&lt;/div&gt;&lt;div&gt;5 print BMI&lt;/div&gt;&lt;div&gt;6 END&lt;/div&gt;&lt;div&gt;&lt;br&gt;&lt;/div&gt;&lt;div&gt;&amp;nbsp;&lt;/div&gt;&lt;div&gt;&lt;br&gt;&lt;/div&gt;" style="rounded=1;whiteSpace=wrap;html=1;absoluteArcSize=1;arcSize=14;strokeWidth=2;align=left;" vertex="1" parent="WIyWlLk6GJQsqaUBKTNV-1">
          <mxGeometry x="40" y="90" width="220" height="140" as="geometry" />
        </mxCell>
        <mxCell id="p9t3yTNLSIE3uB8LMLM_-5" style="edgeStyle=orthogonalEdgeStyle;rounded=0;orthogonalLoop=1;jettySize=auto;html=1;entryX=0.497;entryY=-0.038;entryDx=0;entryDy=0;entryPerimeter=0;" edge="1" parent="WIyWlLk6GJQsqaUBKTNV-1" source="p9t3yTNLSIE3uB8LMLM_-4" target="p9t3yTNLSIE3uB8LMLM_-9">
          <mxGeometry relative="1" as="geometry">
            <mxPoint x="400" y="140" as="targetPoint" />
          </mxGeometry>
        </mxCell>
        <mxCell id="p9t3yTNLSIE3uB8LMLM_-4" value="START" style="strokeWidth=2;html=1;shape=mxgraph.flowchart.terminator;whiteSpace=wrap;" vertex="1" parent="WIyWlLk6GJQsqaUBKTNV-1">
          <mxGeometry x="350" y="40" width="100" height="50" as="geometry" />
        </mxCell>
        <mxCell id="p9t3yTNLSIE3uB8LMLM_-13" style="edgeStyle=orthogonalEdgeStyle;rounded=0;orthogonalLoop=1;jettySize=auto;html=1;entryX=0.5;entryY=0;entryDx=0;entryDy=0;" edge="1" parent="WIyWlLk6GJQsqaUBKTNV-1" source="p9t3yTNLSIE3uB8LMLM_-6" target="p9t3yTNLSIE3uB8LMLM_-12">
          <mxGeometry relative="1" as="geometry" />
        </mxCell>
        <mxCell id="p9t3yTNLSIE3uB8LMLM_-6" value="&lt;span style=&quot;text-align: left;&quot;&gt;input Variable&amp;nbsp; Kilo , Height&lt;/span&gt;" style="shape=parallelogram;html=1;strokeWidth=2;perimeter=parallelogramPerimeter;whiteSpace=wrap;rounded=1;arcSize=12;size=0.23;" vertex="1" parent="WIyWlLk6GJQsqaUBKTNV-1">
          <mxGeometry x="305" y="290" width="190" height="60" as="geometry" />
        </mxCell>
        <mxCell id="p9t3yTNLSIE3uB8LMLM_-11" style="edgeStyle=orthogonalEdgeStyle;rounded=0;orthogonalLoop=1;jettySize=auto;html=1;entryX=0.5;entryY=0;entryDx=0;entryDy=0;" edge="1" parent="WIyWlLk6GJQsqaUBKTNV-1" source="p9t3yTNLSIE3uB8LMLM_-9" target="p9t3yTNLSIE3uB8LMLM_-6">
          <mxGeometry relative="1" as="geometry" />
        </mxCell>
        <mxCell id="p9t3yTNLSIE3uB8LMLM_-9" value="&lt;span style=&quot;text-align: left;&quot;&gt;Declare Vaniable Kilo , Height , BMI&lt;/span&gt;" style="rounded=1;whiteSpace=wrap;html=1;absoluteArcSize=1;arcSize=14;strokeWidth=2;" vertex="1" parent="WIyWlLk6GJQsqaUBKTNV-1">
          <mxGeometry x="305" y="150" width="190" height="70" as="geometry" />
        </mxCell>
        <mxCell id="p9t3yTNLSIE3uB8LMLM_-15" style="edgeStyle=orthogonalEdgeStyle;rounded=0;orthogonalLoop=1;jettySize=auto;html=1;entryX=0.5;entryY=0;entryDx=0;entryDy=0;" edge="1" parent="WIyWlLk6GJQsqaUBKTNV-1" source="p9t3yTNLSIE3uB8LMLM_-12" target="p9t3yTNLSIE3uB8LMLM_-14">
          <mxGeometry relative="1" as="geometry" />
        </mxCell>
        <mxCell id="p9t3yTNLSIE3uB8LMLM_-12" value="&lt;span style=&quot;text-align: left;&quot;&gt;compute &lt;span style=&quot;background-color: rgb(5, 255, 13);&quot;&gt;BMI = Kilo / (Height^2)&lt;/span&gt;&lt;/span&gt;" style="rounded=1;whiteSpace=wrap;html=1;absoluteArcSize=1;arcSize=14;strokeWidth=2;" vertex="1" parent="WIyWlLk6GJQsqaUBKTNV-1">
          <mxGeometry x="315" y="420" width="170" height="70" as="geometry" />
        </mxCell>
        <mxCell id="p9t3yTNLSIE3uB8LMLM_-16" style="edgeStyle=orthogonalEdgeStyle;rounded=0;orthogonalLoop=1;jettySize=auto;html=1;" edge="1" parent="WIyWlLk6GJQsqaUBKTNV-1" source="p9t3yTNLSIE3uB8LMLM_-14">
          <mxGeometry relative="1" as="geometry">
            <mxPoint x="400" y="690" as="targetPoint" />
          </mxGeometry>
        </mxCell>
        <mxCell id="p9t3yTNLSIE3uB8LMLM_-14" value="&lt;span style=&quot;text-align: left;&quot;&gt;print BMI&lt;/span&gt;" style="shape=parallelogram;html=1;strokeWidth=2;perimeter=parallelogramPerimeter;whiteSpace=wrap;rounded=1;arcSize=12;size=0.23;" vertex="1" parent="WIyWlLk6GJQsqaUBKTNV-1">
          <mxGeometry x="312.5" y="555" width="175" height="60" as="geometry" />
        </mxCell>
        <mxCell id="p9t3yTNLSIE3uB8LMLM_-17" value="END" style="strokeWidth=2;html=1;shape=mxgraph.flowchart.terminator;whiteSpace=wrap;" vertex="1" parent="WIyWlLk6GJQsqaUBKTNV-1">
          <mxGeometry x="350" y="690" width="100" height="60" as="geometry" />
        </mxCell>
        <mxCell id="p9t3yTNLSIE3uB8LMLM_-18" value="Name Student ID : 1670700044&lt;div&gt;นายณัฐชนนท์ ศิรมลพิวัฒน์ เลขที่ 1&lt;/div&gt;" style="rounded=1;whiteSpace=wrap;html=1;absoluteArcSize=1;arcSize=14;strokeWidth=2;" vertex="1" parent="WIyWlLk6GJQsqaUBKTNV-1">
          <mxGeometry x="610" y="45" width="190" height="40" as="geometry" />
        </mxCell>
        <mxCell id="dfruAUTw7toT7fXsnMiS-0" style="edgeStyle=orthogonalEdgeStyle;rounded=0;orthogonalLoop=1;jettySize=auto;html=1;exitX=0.5;exitY=1;exitDx=0;exitDy=0;" edge="1" parent="WIyWlLk6GJQsqaUBKTNV-1" source="p9t3yTNLSIE3uB8LMLM_-2" target="p9t3yTNLSIE3uB8LMLM_-2">
          <mxGeometry relative="1" as="geometry" />
        </mxCell>
      </root>
    </mxGraphModel>
  </diagram>
  <diagram id="UKrt-CUc2UUxhzs2WslV" name="Page-2">
    <mxGraphModel grid="1" page="1" gridSize="10" guides="1" tooltips="1" connect="1" arrows="1" fold="1" pageScale="1" pageWidth="850" pageHeight="1100" math="0" shadow="0">
      <root>
        <mxCell id="0" />
        <mxCell id="1" parent="0" />
        <mxCell id="gaNeAF4G7L2jW8nkiStb-1" value="HOMEWORK 2&amp;nbsp;" style="rounded=1;whiteSpace=wrap;html=1;absoluteArcSize=1;arcSize=14;strokeWidth=2;" vertex="1" parent="1">
          <mxGeometry x="40" y="40" width="100" height="40" as="geometry" />
        </mxCell>
        <mxCell id="gaNeAF4G7L2jW8nkiStb-2" value="1. Start&amp;nbsp;&lt;div&gt;2.Declare Variable BU_CAFE , Food_Price&lt;/div&gt;&lt;div&gt;3 input Variable , Food_Price&amp;nbsp;&lt;/div&gt;&lt;div&gt;4 compute&lt;span style=&quot;background-color: rgb(5, 255, 13);&quot;&gt; BU_CAFE = Food_Price +&amp;nbsp;&lt;/span&gt;&lt;/div&gt;&lt;div&gt;&lt;span style=&quot;background-color: rgb(5, 255, 13);&quot;&gt;Food_Price x (10/100)&amp;nbsp;&amp;nbsp;+ Food_Price x (7/100)&amp;nbsp;&lt;/span&gt;&lt;/div&gt;&lt;div&gt;5 print BU_CAFE&lt;/div&gt;&lt;div&gt;6 END&lt;/div&gt;&lt;div&gt;&lt;br&gt;&lt;/div&gt;&lt;div&gt;&amp;nbsp;&lt;/div&gt;&lt;div&gt;&lt;br&gt;&lt;/div&gt;" style="rounded=1;whiteSpace=wrap;html=1;absoluteArcSize=1;arcSize=14;strokeWidth=2;align=left;" vertex="1" parent="1">
          <mxGeometry x="40" y="90" width="240" height="180" as="geometry" />
        </mxCell>
        <mxCell id="gaNeAF4G7L2jW8nkiStb-3" style="edgeStyle=orthogonalEdgeStyle;rounded=0;orthogonalLoop=1;jettySize=auto;html=1;entryX=0.497;entryY=-0.038;entryDx=0;entryDy=0;entryPerimeter=0;" edge="1" parent="1" source="gaNeAF4G7L2jW8nkiStb-4" target="gaNeAF4G7L2jW8nkiStb-8">
          <mxGeometry relative="1" as="geometry">
            <mxPoint x="400" y="140" as="targetPoint" />
          </mxGeometry>
        </mxCell>
        <mxCell id="gaNeAF4G7L2jW8nkiStb-4" value="START" style="strokeWidth=2;html=1;shape=mxgraph.flowchart.terminator;whiteSpace=wrap;" vertex="1" parent="1">
          <mxGeometry x="350" y="40" width="100" height="50" as="geometry" />
        </mxCell>
        <mxCell id="gaNeAF4G7L2jW8nkiStb-5" style="edgeStyle=orthogonalEdgeStyle;rounded=0;orthogonalLoop=1;jettySize=auto;html=1;entryX=0.5;entryY=0;entryDx=0;entryDy=0;" edge="1" parent="1" source="gaNeAF4G7L2jW8nkiStb-6" target="gaNeAF4G7L2jW8nkiStb-10">
          <mxGeometry relative="1" as="geometry" />
        </mxCell>
        <mxCell id="gaNeAF4G7L2jW8nkiStb-6" value="&lt;span style=&quot;text-align: left;&quot;&gt;input Variable&amp;nbsp;&lt;/span&gt;&lt;span style=&quot;text-align: left;&quot;&gt;&amp;nbsp;Food_Price&amp;nbsp;&lt;/span&gt;" style="shape=parallelogram;html=1;strokeWidth=2;perimeter=parallelogramPerimeter;whiteSpace=wrap;rounded=1;arcSize=12;size=0.23;" vertex="1" parent="1">
          <mxGeometry x="305" y="290" width="190" height="60" as="geometry" />
        </mxCell>
        <mxCell id="gaNeAF4G7L2jW8nkiStb-7" style="edgeStyle=orthogonalEdgeStyle;rounded=0;orthogonalLoop=1;jettySize=auto;html=1;entryX=0.5;entryY=0;entryDx=0;entryDy=0;" edge="1" parent="1" source="gaNeAF4G7L2jW8nkiStb-8" target="gaNeAF4G7L2jW8nkiStb-6">
          <mxGeometry relative="1" as="geometry" />
        </mxCell>
        <mxCell id="gaNeAF4G7L2jW8nkiStb-8" value="&lt;span style=&quot;text-align: left;&quot;&gt;Declare Variable&amp;nbsp;&lt;/span&gt;&lt;span style=&quot;text-align: left;&quot;&gt;BU_CAFE ,&amp;nbsp;&lt;/span&gt;&lt;div&gt;&lt;span style=&quot;text-align: left;&quot;&gt;Food_Price&lt;/span&gt;&lt;span style=&quot;text-align: left;&quot;&gt;&amp;nbsp;&lt;/span&gt;&lt;/div&gt;" style="rounded=1;whiteSpace=wrap;html=1;absoluteArcSize=1;arcSize=14;strokeWidth=2;" vertex="1" parent="1">
          <mxGeometry x="305" y="150" width="190" height="70" as="geometry" />
        </mxCell>
        <mxCell id="gaNeAF4G7L2jW8nkiStb-9" style="edgeStyle=orthogonalEdgeStyle;rounded=0;orthogonalLoop=1;jettySize=auto;html=1;entryX=0.5;entryY=0;entryDx=0;entryDy=0;" edge="1" parent="1" source="gaNeAF4G7L2jW8nkiStb-10" target="gaNeAF4G7L2jW8nkiStb-12">
          <mxGeometry relative="1" as="geometry" />
        </mxCell>
        <mxCell id="gaNeAF4G7L2jW8nkiStb-10" value="&lt;span style=&quot;text-align: left;&quot;&gt;compute &lt;/span&gt;&lt;span style=&quot;text-align: left; background-color: rgb(5, 255, 13);&quot;&gt;BU_CAFE =&amp;nbsp;&lt;/span&gt;&lt;div&gt;&lt;span style=&quot;background-color: rgb(5, 255, 13);&quot;&gt;&lt;span style=&quot;text-align: left;&quot;&gt;Food_Price + Food_Price x (10/100)&amp;nbsp;&lt;/span&gt;&lt;span style=&quot;text-align: left;&quot;&gt;+ Food_Price x (7/100)&lt;/span&gt;&lt;/span&gt;&lt;/div&gt;" style="rounded=1;whiteSpace=wrap;html=1;absoluteArcSize=1;arcSize=14;strokeWidth=2;" vertex="1" parent="1">
          <mxGeometry x="315" y="420" width="170" height="70" as="geometry" />
        </mxCell>
        <mxCell id="gaNeAF4G7L2jW8nkiStb-11" style="edgeStyle=orthogonalEdgeStyle;rounded=0;orthogonalLoop=1;jettySize=auto;html=1;" edge="1" parent="1" source="gaNeAF4G7L2jW8nkiStb-12">
          <mxGeometry relative="1" as="geometry">
            <mxPoint x="400" y="690" as="targetPoint" />
          </mxGeometry>
        </mxCell>
        <mxCell id="gaNeAF4G7L2jW8nkiStb-12" value="&lt;span style=&quot;text-align: left;&quot;&gt;print&amp;nbsp;&lt;/span&gt;&lt;span style=&quot;text-align: left;&quot;&gt;BU_CAFE&lt;/span&gt;" style="shape=parallelogram;html=1;strokeWidth=2;perimeter=parallelogramPerimeter;whiteSpace=wrap;rounded=1;arcSize=12;size=0.23;" vertex="1" parent="1">
          <mxGeometry x="312.5" y="555" width="175" height="60" as="geometry" />
        </mxCell>
        <mxCell id="gaNeAF4G7L2jW8nkiStb-13" value="END" style="strokeWidth=2;html=1;shape=mxgraph.flowchart.terminator;whiteSpace=wrap;" vertex="1" parent="1">
          <mxGeometry x="350" y="690" width="100" height="60" as="geometry" />
        </mxCell>
        <mxCell id="gaNeAF4G7L2jW8nkiStb-14" value="Name Student ID : 1670700044&lt;div&gt;นายณัฐชนนท์ ศิรมลพิวัฒน์ เลขที่ 1&lt;/div&gt;" style="rounded=1;whiteSpace=wrap;html=1;absoluteArcSize=1;arcSize=14;strokeWidth=2;" vertex="1" parent="1">
          <mxGeometry x="40" y="550" width="190" height="40" as="geometry" />
        </mxCell>
        <mxCell id="a1zXuBS9keqDblvWsymK-1" value="1. Start&amp;nbsp;&lt;div&gt;2.Declare Variable BU_CAFE ,&lt;/div&gt;&lt;div&gt;Food_Price , Service , VAT&amp;nbsp;&lt;/div&gt;&lt;div&gt;3 input Variable&amp;nbsp; Food_Price&lt;br&gt;&lt;/div&gt;&lt;div&gt;4 compute &lt;span style=&quot;background-color: rgb(255, 102, 255);&quot;&gt;Service = Food_Price x (10/100) , VAT = Food_Price x (7/100)&amp;nbsp;&lt;/span&gt;&lt;/div&gt;&lt;div&gt;5 compute &lt;span style=&quot;background-color: rgb(255, 229, 153);&quot;&gt;BU_CAFE = Food_Price +&amp;nbsp;Service + VAT&lt;/span&gt;&lt;span style=&quot;background-color: initial;&quot;&gt;&amp;nbsp;&amp;nbsp;&lt;/span&gt;&lt;/div&gt;&lt;div&gt;6 print BU_CAFE&lt;/div&gt;&lt;div&gt;7 END&lt;/div&gt;&lt;div&gt;&lt;br&gt;&lt;/div&gt;&lt;div&gt;&amp;nbsp;&lt;/div&gt;&lt;div&gt;&lt;br&gt;&lt;/div&gt;" style="rounded=1;whiteSpace=wrap;html=1;absoluteArcSize=1;arcSize=14;strokeWidth=2;align=left;" vertex="1" parent="1">
          <mxGeometry x="40" y="310" width="220" height="210" as="geometry" />
        </mxCell>
        <mxCell id="_hBYHZNsXDogbkH31E-l-8" style="edgeStyle=orthogonalEdgeStyle;rounded=0;orthogonalLoop=1;jettySize=auto;html=1;entryX=0.497;entryY=-0.038;entryDx=0;entryDy=0;entryPerimeter=0;" edge="1" parent="1" source="_hBYHZNsXDogbkH31E-l-9" target="_hBYHZNsXDogbkH31E-l-13">
          <mxGeometry relative="1" as="geometry">
            <mxPoint x="625" y="140" as="targetPoint" />
          </mxGeometry>
        </mxCell>
        <mxCell id="_hBYHZNsXDogbkH31E-l-9" value="START" style="strokeWidth=2;html=1;shape=mxgraph.flowchart.terminator;whiteSpace=wrap;" vertex="1" parent="1">
          <mxGeometry x="575" y="40" width="100" height="50" as="geometry" />
        </mxCell>
        <mxCell id="_hBYHZNsXDogbkH31E-l-10" style="edgeStyle=orthogonalEdgeStyle;rounded=0;orthogonalLoop=1;jettySize=auto;html=1;entryX=0.5;entryY=0;entryDx=0;entryDy=0;" edge="1" parent="1" source="_hBYHZNsXDogbkH31E-l-11" target="_hBYHZNsXDogbkH31E-l-15">
          <mxGeometry relative="1" as="geometry" />
        </mxCell>
        <mxCell id="_hBYHZNsXDogbkH31E-l-11" value="&lt;span style=&quot;text-align: left;&quot;&gt;input Variable&amp;nbsp;&lt;/span&gt;&lt;span style=&quot;text-align: left;&quot;&gt;&amp;nbsp;Food_Price&amp;nbsp;&lt;/span&gt;" style="shape=parallelogram;html=1;strokeWidth=2;perimeter=parallelogramPerimeter;whiteSpace=wrap;rounded=1;arcSize=12;size=0.23;" vertex="1" parent="1">
          <mxGeometry x="530" y="290" width="190" height="60" as="geometry" />
        </mxCell>
        <mxCell id="_hBYHZNsXDogbkH31E-l-12" style="edgeStyle=orthogonalEdgeStyle;rounded=0;orthogonalLoop=1;jettySize=auto;html=1;entryX=0.5;entryY=0;entryDx=0;entryDy=0;" edge="1" parent="1" source="_hBYHZNsXDogbkH31E-l-13" target="_hBYHZNsXDogbkH31E-l-11">
          <mxGeometry relative="1" as="geometry" />
        </mxCell>
        <mxCell id="_hBYHZNsXDogbkH31E-l-13" value="&lt;span style=&quot;text-align: left;&quot;&gt;Declare Variable&amp;nbsp;&lt;/span&gt;&lt;span style=&quot;text-align: left; background-color: initial;&quot;&gt;BU_CAFE ,&lt;/span&gt;&lt;div style=&quot;text-align: left;&quot;&gt;Food_Price , Service , VAT&lt;/div&gt;" style="rounded=1;whiteSpace=wrap;html=1;absoluteArcSize=1;arcSize=14;strokeWidth=2;" vertex="1" parent="1">
          <mxGeometry x="530" y="150" width="190" height="70" as="geometry" />
        </mxCell>
        <mxCell id="_hBYHZNsXDogbkH31E-l-14" style="edgeStyle=orthogonalEdgeStyle;rounded=0;orthogonalLoop=1;jettySize=auto;html=1;entryX=0.5;entryY=0;entryDx=0;entryDy=0;" edge="1" parent="1" source="_hBYHZNsXDogbkH31E-l-15">
          <mxGeometry relative="1" as="geometry">
            <mxPoint x="625" y="555" as="targetPoint" />
          </mxGeometry>
        </mxCell>
        <mxCell id="_hBYHZNsXDogbkH31E-l-15" value="&lt;span style=&quot;text-align: left;&quot;&gt;compute&amp;nbsp;&lt;/span&gt;&lt;span style=&quot;text-align: left; background-color: rgb(255, 102, 255);&quot;&gt;&amp;nbsp;Service = Food_Price x (10/100) , VAT = Food_Price x (7/100)&lt;/span&gt;" style="rounded=1;whiteSpace=wrap;html=1;absoluteArcSize=1;arcSize=14;strokeWidth=2;" vertex="1" parent="1">
          <mxGeometry x="540" y="420" width="170" height="70" as="geometry" />
        </mxCell>
        <mxCell id="_hBYHZNsXDogbkH31E-l-18" value="END" style="strokeWidth=2;html=1;shape=mxgraph.flowchart.terminator;whiteSpace=wrap;" vertex="1" parent="1">
          <mxGeometry x="575" y="790" width="100" height="60" as="geometry" />
        </mxCell>
        <mxCell id="h_5-ZQ6n4F1r5mRli6hj-4" style="edgeStyle=orthogonalEdgeStyle;rounded=0;orthogonalLoop=1;jettySize=auto;html=1;entryX=0.5;entryY=0;entryDx=0;entryDy=0;" edge="1" parent="1" source="h_5-ZQ6n4F1r5mRli6hj-2" target="h_5-ZQ6n4F1r5mRli6hj-3">
          <mxGeometry relative="1" as="geometry" />
        </mxCell>
        <mxCell id="h_5-ZQ6n4F1r5mRli6hj-2" value="&lt;span style=&quot;text-align: left;&quot;&gt;compute&amp;nbsp;&lt;/span&gt;&lt;span style=&quot;text-align: left;&quot;&gt;&amp;nbsp;&lt;/span&gt;&lt;span style=&quot;text-align: left; background-color: rgb(255, 229, 153);&quot;&gt;BU_CAFE =&amp;nbsp;&lt;/span&gt;&lt;div&gt;&lt;span style=&quot;background-color: rgb(255, 229, 153);&quot;&gt;&lt;span style=&quot;text-align: left;&quot;&gt;Food_Price +&amp;nbsp;&lt;/span&gt;&lt;span style=&quot;text-align: left;&quot;&gt;Service + VAT&lt;/span&gt;&lt;span style=&quot;text-align: left;&quot;&gt;&amp;nbsp;&amp;nbsp;&lt;/span&gt;&lt;/span&gt;&lt;/div&gt;" style="rounded=1;whiteSpace=wrap;html=1;absoluteArcSize=1;arcSize=14;strokeWidth=2;" vertex="1" parent="1">
          <mxGeometry x="540" y="555" width="170" height="70" as="geometry" />
        </mxCell>
        <mxCell id="h_5-ZQ6n4F1r5mRli6hj-3" value="&lt;span style=&quot;text-align: left;&quot;&gt;print&amp;nbsp;&lt;/span&gt;&lt;span style=&quot;text-align: left;&quot;&gt;BU_CAFE&lt;/span&gt;" style="shape=parallelogram;html=1;strokeWidth=2;perimeter=parallelogramPerimeter;whiteSpace=wrap;rounded=1;arcSize=12;size=0.23;" vertex="1" parent="1">
          <mxGeometry x="537.5" y="680" width="175" height="60" as="geometry" />
        </mxCell>
        <mxCell id="h_5-ZQ6n4F1r5mRli6hj-5" style="edgeStyle=orthogonalEdgeStyle;rounded=0;orthogonalLoop=1;jettySize=auto;html=1;entryX=0.5;entryY=0;entryDx=0;entryDy=0;entryPerimeter=0;" edge="1" parent="1" source="h_5-ZQ6n4F1r5mRli6hj-3" target="_hBYHZNsXDogbkH31E-l-18">
          <mxGeometry relative="1" as="geometry" />
        </mxCell>
        <mxCell id="9CeepZOCmWx0b-JU0h2--1" value="&lt;h1&gt;1&lt;/h1&gt;" style="text;html=1;align=center;verticalAlign=middle;resizable=0;points=[];autosize=1;strokeColor=none;fillColor=none;" vertex="1" parent="1">
          <mxGeometry x="190" y="180" width="40" height="70" as="geometry" />
        </mxCell>
        <mxCell id="9CeepZOCmWx0b-JU0h2--2" value="&lt;h1&gt;1&lt;/h1&gt;" style="text;html=1;align=center;verticalAlign=middle;resizable=0;points=[];autosize=1;strokeColor=none;fillColor=none;" vertex="1" parent="1">
          <mxGeometry x="390" y="80" width="40" height="70" as="geometry" />
        </mxCell>
        <mxCell id="9CeepZOCmWx0b-JU0h2--3" value="&lt;h1&gt;2&lt;/h1&gt;" style="text;html=1;align=center;verticalAlign=middle;resizable=0;points=[];autosize=1;strokeColor=none;fillColor=none;" vertex="1" parent="1">
          <mxGeometry x="635" y="80" width="40" height="70" as="geometry" />
        </mxCell>
        <mxCell id="9CeepZOCmWx0b-JU0h2--4" value="&lt;h1&gt;2&lt;/h1&gt;" style="text;html=1;align=center;verticalAlign=middle;resizable=0;points=[];autosize=1;strokeColor=none;fillColor=none;" vertex="1" parent="1">
          <mxGeometry x="170" y="440" width="40" height="70" as="geometry" />
        </mxCell>
      </root>
    </mxGraphModel>
  </diagram>
</mxfile>
